<svg width="300" height="167" viewBox="0 0 300 167" fill="none" xmlns="http://www.w3.org/2000/svg">
<path d="M4.84481 163.801C3.46058 163.801 2.30705 163.339 1.38423 162.417C0.461411 161.34 0 160.186 0 158.956C0 158.187 0.0769018 157.495 0.230705 156.88L55.1386 8.5361C55.6 6.84427 56.5228 5.38313 57.9071 4.1527C59.2913 2.92227 61.2139 2.30705 63.6747 2.30705H93.205C95.6659 2.30705 97.5884 2.92227 98.9726 4.1527C100.357 5.38313 101.28 6.84427 101.741 8.5361L156.649 156.88C156.803 157.495 156.88 158.187 156.88 158.956C156.88 160.186 156.418 161.34 155.495 162.417C154.573 163.339 153.419 163.801 152.035 163.801H128.042C125.734 163.801 124.043 163.263 122.966 162.186C121.889 161.109 121.197 160.11 120.89 159.187L110.969 133.348H45.9104L35.9901 159.187C35.6824 160.11 34.9903 161.109 33.9137 162.186C32.8371 163.263 31.1452 163.801 28.8382 163.801H4.84481ZM54.4465 103.587H102.203L78.4399 37.1436L54.4465 103.587Z" fill="#156BB3"/>
<path d="M232.403 166.108C217.638 166.108 205.257 163.955 195.26 159.648C185.416 155.342 177.957 149.728 172.881 142.807C167.806 135.886 165.114 128.503 164.807 120.659C164.807 119.429 165.268 118.352 166.191 117.429C167.114 116.352 168.267 115.814 169.651 115.814H194.337C196.336 115.814 197.874 116.276 198.951 117.198C200.028 117.967 201.027 118.967 201.95 120.198C203.027 122.812 204.719 125.35 207.026 127.811C209.487 130.272 212.793 132.348 216.946 134.04C221.099 135.578 226.251 136.347 232.403 136.347C242.401 136.347 249.86 134.732 254.782 131.502C259.857 128.272 262.395 123.889 262.395 118.352C262.395 114.353 261.011 111.123 258.242 108.662C255.628 106.201 251.398 103.971 245.554 101.972C239.863 99.9724 232.249 97.8191 222.714 95.5121C211.178 93.0512 201.335 89.8982 193.183 86.0531C185.186 82.0542 179.11 76.9787 174.958 70.8266C170.959 64.5206 168.959 56.7535 168.959 47.5253C168.959 38.2971 171.497 30.1455 176.573 23.0706C181.648 15.8418 188.8 10.2279 198.028 6.22905C207.256 2.07635 218.253 0 231.019 0C241.324 0 250.398 1.38423 258.242 4.1527C266.24 6.92117 272.854 10.5356 278.083 14.9959C283.466 19.4562 287.542 24.2241 290.31 29.2996C293.079 34.3751 294.54 39.2968 294.694 44.0647C294.694 45.2952 294.232 46.4487 293.31 47.5253C292.387 48.4481 291.233 48.9096 289.849 48.9096H264.01C262.472 48.9096 261.088 48.602 259.857 47.9867C258.627 47.3715 257.627 46.2949 256.858 44.7569C255.935 40.758 253.167 37.2974 248.553 34.3751C244.092 31.299 238.248 29.761 231.019 29.761C223.483 29.761 217.484 31.1452 213.024 33.9137C208.718 36.6822 206.564 40.9118 206.564 46.6025C206.564 50.2938 207.641 53.4468 209.794 56.0614C212.101 58.5223 215.869 60.7524 221.099 62.7519C226.482 64.5975 233.557 66.6739 242.324 68.9809C255.858 71.7494 266.855 75.0562 275.315 78.9013C283.774 82.7464 290.003 87.745 294.002 93.8971C298.001 99.8955 300 107.509 300 116.737C300 127.042 297.078 135.886 291.233 143.268C285.542 150.651 277.622 156.341 267.471 160.34C257.473 164.185 245.784 166.108 232.403 166.108Z" fill="#156BB3"/>
</svg>
